<?xml version="1.0" standalone="no"?>
<!DOCTYPE svg PUBLIC "-//W3C//DTD SVG 20010904//EN"
 "http://www.w3.org/TR/2001/REC-SVG-20010904/DTD/svg10.dtd">
<svg version="1.0" xmlns="http://www.w3.org/2000/svg"
 width="247.000000pt" height="247.000000pt" viewBox="0 0 247.000000 247.000000"
 preserveAspectRatio="xMidYMid meet">
<metadata>
Created by potrace 1.11, written by Peter Selinger 2001-2013
</metadata>
<g transform="translate(0.000000,247.000000) scale(0.100000,-0.100000)"
fill="#000000" stroke="none">
<path d="M520 2030 c0 -5 5 -10 10 -10 6 0 10 5 10 10 0 6 -4 10 -10 10 -5 0
-10 -4 -10 -10z"/>
<path d="M624 2026 c-15 -17 -12 -55 4 -65 8 -5 14 -12 14 -17 0 -5 4 -8 9 -6
5 1 9 -5 9 -14 0 -12 3 -14 13 -6 23 20 35 -1 28 -51 -1 -4 -10 -3 -20 3 -42
22 -68 -51 -35 -98 14 -20 13 -25 -8 -63 l-23 -41 28 -22 c17 -14 27 -31 27
-49 0 -15 5 -27 11 -27 6 0 9 -7 6 -14 -4 -10 -1 -13 7 -10 7 3 19 -2 26 -11
19 -23 27 -18 35 21 5 31 2 41 -21 65 -24 25 -25 29 -10 35 9 4 18 5 19 3 2
-2 14 -28 27 -57 22 -50 23 -55 7 -63 -9 -6 -17 -19 -17 -29 0 -10 -4 -21 -9
-24 -13 -9 -21 -77 -11 -97 7 -11 7 -20 0 -24 -6 -4 -6 -15 1 -32 5 -14 7 -28
4 -31 -2 -3 1 -12 7 -20 10 -11 9 -17 -6 -28 -16 -11 -17 -16 -6 -29 17 -20 1
-19 -21 1 -17 15 -18 14 -25 -9 -3 -15 -13 -32 -21 -39 -14 -11 -15 -10 -9 9
5 16 3 21 -11 19 -25 -2 -25 34 0 59 21 21 21 19 1 -29 -4 -10 0 -14 13 -12
10 2 17 10 15 20 -2 11 4 16 22 16 33 0 36 8 21 55 -11 35 -13 37 -14 13 -1
-16 -5 -28 -9 -28 -8 0 -7 21 2 85 2 17 -1 33 -7 37 -7 4 -5 12 6 22 13 13 14
22 5 46 -5 17 -14 30 -20 30 -6 0 -8 -7 -4 -15 3 -8 1 -15 -4 -15 -14 0 -50
-61 -44 -72 3 -5 -9 -14 -26 -22 -17 -7 -45 -33 -61 -57 -31 -48 -36 -65 -17
-71 7 -3 5 -7 -5 -11 -29 -11 -31 19 -4 65 34 59 61 88 81 88 9 0 16 6 16 14
0 7 10 28 23 47 20 29 21 37 11 58 -7 14 -10 39 -8 55 5 29 5 30 -10 12 -9
-11 -19 -17 -22 -13 -4 4 -2 13 4 20 14 17 6 28 -14 20 -11 -4 -13 -14 -9 -37
7 -31 7 -31 -10 -8 -15 21 -53 33 -40 12 3 -5 1 -10 -4 -10 -6 0 -11 8 -11 19
0 29 -22 42 -44 26 -10 -8 -23 -12 -29 -10 -19 7 -98 16 -162 20 -48 3 -80 13
-160 54 -109 55 -143 64 -123 32 9 -15 9 -28 1 -56 -7 -23 -8 -45 -3 -58 5
-12 11 -39 15 -59 3 -22 15 -45 30 -57 14 -10 25 -26 25 -34 0 -8 5 -17 10
-19 12 -4 40 -101 40 -139 0 -15 12 -52 26 -83 14 -31 25 -71 24 -89 -3 -47
-1 -57 10 -57 5 0 7 6 4 14 -6 17 15 33 25 19 3 -6 16 -13 29 -17 29 -10 28
-22 -3 -30 -16 -4 -22 -11 -19 -21 8 -20 -6 -19 -22 3 -12 15 -13 13 -8 -18 9
-49 29 -68 54 -53 13 9 21 9 26 2 4 -6 2 -14 -3 -18 -16 -11 -24 -43 -13 -56
14 -16 2 -45 -18 -45 -12 0 -13 -3 -4 -12 7 -7 12 -19 12 -28 -1 -12 -4 -11
-16 5 -8 11 -13 32 -10 50 2 16 0 39 -4 50 -6 13 -9 -11 -9 -68 -1 -55 3 -86
9 -82 5 3 19 1 30 -5 13 -7 26 -8 33 -3 7 5 23 8 37 6 14 -2 36 -5 50 -6 35
-4 52 -16 46 -33 -3 -8 -2 -14 2 -15 4 0 19 -3 34 -5 14 -2 29 0 33 6 17 27
70 -5 109 -64 10 -16 20 -54 23 -85 4 -63 23 -99 50 -98 10 1 38 -5 63 -12 54
-16 122 -2 158 32 21 19 34 22 107 21 69 -1 87 -4 110 -22 22 -17 31 -19 47
-11 11 6 31 9 44 6 13 -2 25 -1 26 2 2 3 20 15 41 25 32 17 42 18 59 7 26 -16
89 -6 121 19 13 10 54 26 92 35 38 8 73 20 79 24 6 5 22 9 36 9 51 -2 130 11
152 25 19 11 83 14 346 13 177 -1 322 1 322 4 0 3 -6 12 -12 18 -10 10 -10 17
0 33 10 16 10 24 1 35 -6 8 -8 14 -4 14 4 0 0 11 -9 25 -15 23 -17 77 -16 533
2 642 2 671 1 707 l-1 30 -898 2 c-713 2 -899 -1 -908 -11z m66 -269 c0 -7 14
-21 31 -31 16 -10 29 -22 27 -28 -2 -5 -6 -8 -10 -6 -3 2 -15 -5 -26 -15 -24
-22 -19 -42 17 -73 14 -12 23 -26 18 -30 -4 -4 -13 1 -21 11 -7 10 -18 15 -24
11 -10 -6 -17 6 -10 17 6 8 -26 47 -39 47 -14 0 -14 2 2 20 10 11 21 17 26 15
11 -8 23 16 12 24 -15 9 -26 51 -14 51 6 0 11 -6 11 -13z m-26 -384 c6 -15 8
-15 16 -3 6 8 10 10 10 5 0 -13 -21 -35 -33 -35 -4 0 -6 4 -2 9 3 5 1 12 -5
16 -12 8 -13 25 -1 25 5 0 12 -8 15 -17z m-84 -92 c0 -5 -7 -12 -16 -15 -14
-5 -15 -4 -4 9 14 17 20 19 20 6z m40 -35 c0 -8 -4 -17 -9 -20 -13 -8 -3 -41
21 -66 11 -12 17 -24 14 -28 -4 -3 -13 4 -22 16 -13 19 -46 21 -41 2 1 -4 -2
-8 -7 -8 -5 0 -13 -6 -17 -14 -7 -10 -9 -10 -9 2 1 21 25 51 34 42 5 -4 7 7 6
23 -3 33 7 65 21 65 5 0 9 -6 9 -14z m-71 -88 c-7 -13 -14 -18 -16 -11 -3 7 2
19 9 27 18 20 22 12 7 -16z"/>
<path d="M570 1906 c0 -7 -7 -19 -15 -26 -19 -16 -20 -34 -1 -27 7 3 19 0 25
-6 9 -9 10 -7 5 8 -7 17 -6 18 8 7 10 -8 19 -9 22 -3 9 14 -2 35 -24 49 -16
10 -20 10 -20 -2z"/>
<path d="M640 1895 c7 -8 17 -12 22 -9 6 4 5 10 -3 15 -22 14 -33 10 -19 -6z"/>
<path d="M480 1881 c0 -5 7 -12 16 -15 14 -5 15 -4 4 9 -14 17 -20 19 -20 6z"/>
<path d="M496 1842 c-15 -25 28 -65 82 -75 26 -5 32 -3 32 12 0 21 -38 58 -60
59 -8 0 -22 3 -31 6 -10 4 -20 3 -23 -2z m71 -42 c-2 -23 -12 -26 -20 -6 -3 8
-1 17 6 20 7 2 13 5 14 5 1 1 1 -8 0 -19z"/>
<path d="M600 1831 c0 -6 5 -13 10 -16 6 -3 10 1 10 9 0 9 -4 16 -10 16 -5 0
-10 -4 -10 -9z"/>
</g>
</svg>
